<?xml version="1.0" encoding="utf-8"?>
<!-- Generator: Adobe Illustrator 24.0.1, SVG Export Plug-In . SVG Version: 6.00 Build 0)  -->
<svg version="1.1" id="Capa_1" xmlns="http://www.w3.org/2000/svg" xmlns:xlink="http://www.w3.org/1999/xlink" x="0px" y="0px"
	 viewBox="0 0 985.7 985.7" style="enable-background:new 0 0 985.7 985.7;" xml:space="preserve">
<style type="text/css">
	.st0{fill:#FFFFFF;}
	.st1{fill:#0077B6;}
</style>
<circle class="st0" cx="397" cy="227.1" r="149"/>
<g>
	<path class="st1" d="M506.8,167.2h-9.6v-9.1c0-2-1.5-3.8-3.6-4l-55.9-6.6c-12.5-1.5-25.1,0.6-36.4,6.1c-11.3-5.4-23.9-7.5-36.4-6.1
		l-55.9,6.6c-2,0.2-3.6,2-3.6,4v9.1h-9.6c-2.2,0-4,1.8-4,4v131.9c0,2.2,1.8,4,4,4h211.1c2.2,0,4-1.8,4-4V171.2
		C510.8,169,509,167.2,506.8,167.2z M436.7,155.5l52.3,6.1v119.9l-51.4-6c-11.1-1.3-22.1,0.2-32.4,4.3V160.6
		C415.1,156,425.9,154.2,436.7,155.5z M365.7,155.5c10.8-1.3,21.6,0.5,31.5,5.1v119.2c-7.8-3.1-16.2-4.8-24.6-4.8
		c-2.6,0-5.2,0.2-7.8,0.5l-51.4,6V161.6L365.7,155.5z M502.7,299.1h-203V175.3h5.6v110.8c0,1.2,0.5,2.2,1.4,3c0.9,0.8,2,1.1,3.1,1
		l55.9-6.6c11.6-1.4,23.2,0.8,33.6,6.1c1.2,0.6,2.5,0.6,3.7,0c10.4-5.4,22-7.5,33.6-6.1l55.9,6.6c0.2,0,0.3,0,0.5,0
		c1,0,1.9-0.4,2.7-1c0.9-0.8,1.4-1.9,1.4-3V175.3h5.6L502.7,299.1L502.7,299.1z"/>
	<path class="st1" d="M414.6,178.2c7.2-2,14.7-2.5,22.1-1.6l42,4.9c0.2,0,0.3,0,0.5,0c2,0,3.8-1.5,4-3.6c0.3-2.2-1.3-4.2-3.5-4.5
		l-42-4.9c-8.5-1-16.9-0.4-25.2,1.9c-2.1,0.6-3.4,2.8-2.8,4.9C410.2,177.5,412.4,178.8,414.6,178.2z"/>
	<path class="st1" d="M323.2,181.5c0.2,0,0.3,0,0.5,0l42-4.9c7.4-0.9,14.9-0.3,22.1,1.6c2.1,0.6,4.4-0.7,4.9-2.8
		c0.6-2.1-0.7-4.4-2.8-4.9c-8.1-2.2-16.7-2.9-25.2-1.9l-42,4.9c-2.2,0.3-3.8,2.3-3.5,4.5C319.5,180,321.2,181.5,323.2,181.5z"/>
	<path class="st1" d="M414.6,196.7c7.2-2,14.7-2.5,22.1-1.6l42,4.9c0.2,0,0.3,0,0.5,0c2,0,3.8-1.5,4-3.6c0.3-2.2-1.3-4.2-3.5-4.5
		l-42-4.9c-8.5-1-16.9-0.4-25.2,1.9c-2.1,0.6-3.4,2.8-2.8,4.9C410.2,196,412.4,197.3,414.6,196.7z"/>
	<path class="st1" d="M323.2,200c0.2,0,0.3,0,0.5,0l42-4.9c7.4-0.9,14.9-0.3,22.1,1.6c2.1,0.6,4.4-0.7,4.9-2.8
		c0.6-2.1-0.7-4.4-2.8-4.9c-8.1-2.2-16.7-2.9-25.2-1.9l-42,4.9c-2.2,0.3-3.8,2.3-3.5,4.5C319.5,198.5,321.2,200,323.2,200z"/>
	<path class="st1" d="M414.6,215.2c7.2-2,14.7-2.5,22.1-1.6l42,4.9c0.2,0,0.3,0,0.5,0c2,0,3.8-1.5,4-3.6c0.3-2.2-1.3-4.2-3.5-4.5
		l-42-4.9c-8.5-1-16.9-0.4-25.2,1.9c-2.1,0.6-3.4,2.8-2.8,4.9S412.4,215.8,414.6,215.2z"/>
	<path class="st1" d="M323.2,218.5c0.2,0,0.3,0,0.5,0l42-4.9c7.4-0.9,14.9-0.3,22.1,1.6c2.1,0.6,4.4-0.7,4.9-2.8
		c0.6-2.1-0.7-4.4-2.8-4.9c-8.1-2.2-16.7-2.9-25.2-1.9l-42,4.9c-2.2,0.3-3.8,2.3-3.5,4.5C319.5,217,321.2,218.5,323.2,218.5z"/>
	<path class="st1" d="M414.6,233.7c7.2-2,14.7-2.5,22.1-1.6l42,4.9c0.2,0,0.3,0,0.5,0c2,0,3.8-1.5,4-3.6c0.3-2.2-1.3-4.2-3.5-4.5
		l-42-4.9c-8.5-1-16.9-0.4-25.2,1.9c-2.1,0.6-3.4,2.8-2.8,4.9C410.2,233,412.4,234.3,414.6,233.7z"/>
	<path class="st1" d="M323.2,237c0.2,0,0.3,0,0.5,0l42-4.9c7.4-0.9,14.9-0.3,22.1,1.6c2.1,0.6,4.4-0.7,4.9-2.8
		c0.6-2.1-0.7-4.4-2.8-4.9c-8.1-2.2-16.7-2.9-25.2-1.9l-42,4.9c-2.2,0.3-3.8,2.3-3.5,4.5C319.5,235.5,321.2,237,323.2,237z"/>
	<path class="st1" d="M479.6,247.5l-42-4.9c-8.5-1-16.9-0.4-25.2,1.9c-2.1,0.6-3.4,2.8-2.8,4.9c0.6,2.1,2.8,3.4,4.9,2.8
		c7.2-2,14.7-2.5,22.1-1.6l42,4.9c0.2,0,0.3,0,0.5,0c2,0,3.8-1.5,4-3.6C483.4,249.7,481.8,247.7,479.6,247.5z"/>
	<path class="st1" d="M323.2,255.5c0.2,0,0.3,0,0.5,0l42-4.9c7.4-0.9,14.9-0.3,22.1,1.6c2.1,0.6,4.4-0.7,4.9-2.8
		c0.6-2.1-0.7-4.4-2.8-4.9c-8.1-2.2-16.7-2.9-25.2-1.9l-42,4.9c-2.2,0.3-3.8,2.3-3.5,4.5C319.5,254,321.2,255.5,323.2,255.5z"/>
</g>
</svg>
